# xmcd CD database file
#
# Track frame offsets:
#	150
#	19659
#	41356
#	63928
#	79895
#	100742
#	124499
#	149181
#	168615
#	188592
#	213889
#	238286
#
# Disc length: 3405 seconds
#
# Revision: 12
# Processed by: cddbd v1.5.1PL0 Copyright (c) Steve Scherf et al.
# Submitted via: CDex 1.50
#
DISCID=ab0d4b0c
DTITLE=倉木麻衣 - FAIRY TALE
DYEAR=2002
DGENRE=JPop
TTITLE0=Fairy tale 〜my last teenage wish〜
TTITLE1=Feel fine!
TTITLE2=Ride on time
TTITLE3=key to my heart
TTITLE4=Winter Bells
TTITLE5=Loving You…
TTITLE6=Can't forget your love
TTITLE7=Trip in the dream
TTITLE8=Not that kind a girl
TTITLE9=Like a star in the night
TTITLE10=不思議の国
TTITLE11=fantasy
EXTD=YEAR: 2002
EXTT0=
EXTT1=
EXTT2=
EXTT3=
EXTT4=
EXTT5=
EXTT6=
EXTT7=
EXTT8=
EXTT9=
EXTT10=
EXTT11=
PLAYORDER=
